<?xml version="1.0" encoding="UTF-8"?>
<!DOCTYPE svg PUBLIC "-//W3C//DTD SVG 1.1//EN" "http://www.w3.org/Graphics/SVG/1.1/DTD/svg11.dtd">
<!-- Creator: CorelDRAW X6 -->
<svg xmlns="http://www.w3.org/2000/svg" xml:space="preserve" width="133px" height="133px" version="1.1" style="shape-rendering:geometricPrecision; text-rendering:geometricPrecision; image-rendering:optimizeQuality; fill-rule:evenodd; clip-rule:evenodd"
viewBox="0 0 133 133"
 xmlns:xlink="http://www.w3.org/1999/xlink">
 <defs>
  <style type="text/css">
   <![CDATA[
    .fil0 {fill:none}
    .fil4 {fill:url(#id0)}
    .fil3 {fill:url(#id1)}
    .fil2 {fill:url(#id2)}
    .fil6 {fill:url(#id3)}
    .fil1 {fill:url(#id4)}
    .fil5 {fill:url(#id5)}
   ]]>
  </style>
  <linearGradient id="id0" gradientUnits="userSpaceOnUse" x1="29.335" y1="66.5" x2="130.923" y2="66.5">
   <stop offset="0" style="stop-color:#8AC6E7"/>
   <stop offset="0.501961" style="stop-color:#65B2E1"/>
   <stop offset="1" style="stop-color:#369FD9"/>
  </linearGradient>
  <linearGradient id="id1" gradientUnits="userSpaceOnUse" xlink:href="#id0" x1="29.335" y1="37.4101" x2="130.923" y2="37.4101">
  </linearGradient>
  <linearGradient id="id2" gradientUnits="userSpaceOnUse" x1="2.07709" y1="8.31662" x2="27.3392" y2="8.31662">
   <stop offset="0" style="stop-color:#FEFEFE"/>
   <stop offset="0.501961" style="stop-color:#EFEFF0"/>
   <stop offset="1" style="stop-color:#E0E0E0"/>
  </linearGradient>
  <linearGradient id="id3" gradientUnits="userSpaceOnUse" xlink:href="#id2" x1="29.335" y1="124.68" x2="130.923" y2="124.68">
  </linearGradient>
  <linearGradient id="id4" gradientUnits="userSpaceOnUse" xlink:href="#id2" x1="29.335" y1="8.31662" x2="130.923" y2="8.31662">
  </linearGradient>
  <linearGradient id="id5" gradientUnits="userSpaceOnUse" xlink:href="#id2" x1="42.938" y1="95.5899" x2="130.923" y2="95.5899">
  </linearGradient>
 </defs>
 <g id="Layer_x0020_1">
  <metadata id="CorelCorpID_0Corel-Layer"/>
  <rect class="fil0" width="133" height="133"/>
 </g>
 <g id="Layer_x0020_1_0">
  <metadata id="CorelCorpID_1Corel-Layer"/>
  <path class="fil1" d="M125 2l-90 0c-3,0 -6,3 -6,6l0 0c0,3 3,6 6,6l0 0 90 0c3,0 6,-3 6,-6l0 0c0,-3 -3,-6 -6,-6z"/>
  <path class="fil2" d="M21 2l-13 0c-3,0 -6,3 -6,6l0 0c0,3 3,6 6,6l0 0 13 0c3,0 6,-3 6,-6 0,-3 -3,-6 -6,-6z"/>
  <path class="fil3" d="M35 44l90 0c3,0 6,-3 6,-6l0 0c0,-3 -3,-6 -6,-6l0 0 -90 0c-3,0 -6,3 -6,6l0 0c0,3 3,6 6,6z"/>
  <path class="fil4" d="M35 60c-3,0 -6,3 -6,6l0 0c0,3 3,6 6,6l0 0 90 0c3,0 6,-3 6,-6l0 0c0,-3 -3,-6 -6,-6l0 0 -90 0z"/>
  <path class="fil5" d="M125 89l-76 0c-3,0 -6,3 -6,6l0 0c0,3 3,6 6,6l0 0 76 0c3,0 6,-3 6,-6l0 0c0,-3 -3,-6 -6,-6z"/>
  <path class="fil6" d="M125 118l-90 0c-3,0 -6,3 -6,6l0 0c0,3 3,6 6,6l0 0 90 0c3,0 6,-3 6,-6l0 0c0,-3 -3,-6 -6,-6z"/>
 </g>
</svg>
