<?xml version="1.0" encoding="UTF-8"?>
<!DOCTYPE svg PUBLIC "-//W3C//DTD SVG 1.1//EN" "http://www.w3.org/Graphics/SVG/1.1/DTD/svg11.dtd">
<!-- Creator: CorelDRAW X6 -->
<svg xmlns="http://www.w3.org/2000/svg" xml:space="preserve" width="133px" height="133px" version="1.1" style="shape-rendering:geometricPrecision; text-rendering:geometricPrecision; image-rendering:optimizeQuality; fill-rule:evenodd; clip-rule:evenodd"
viewBox="0 0 133 133"
 xmlns:xlink="http://www.w3.org/1999/xlink">
 <defs>
  <style type="text/css">
   <![CDATA[
    .fil0 {fill:none}
    .fil5 {fill:url(#id0)}
    .fil4 {fill:url(#id1)}
    .fil3 {fill:url(#id2)}
    .fil6 {fill:url(#id3)}
    .fil2 {fill:url(#id4)}
    .fil1 {fill:url(#id5)}
    .fil7 {fill:url(#id6)}
   ]]>
  </style>
  <linearGradient id="id0" gradientUnits="userSpaceOnUse" x1="5.36534" y1="99.0007" x2="57.3893" y2="99.0007">
   <stop offset="0" style="stop-color:#656261"/>
   <stop offset="1" style="stop-color:#3C3936"/>
  </linearGradient>
  <linearGradient id="id1" gradientUnits="userSpaceOnUse" xlink:href="#id0" x1="39.334" y1="31.9505" x2="86.5205" y2="31.9505">
  </linearGradient>
  <linearGradient id="id2" gradientUnits="userSpaceOnUse" xlink:href="#id0" x1="50.6644" y1="78.192" x2="130.923" y2="78.192">
  </linearGradient>
  <linearGradient id="id3" gradientUnits="userSpaceOnUse" xlink:href="#id0" x1="92.9261" y1="19.3159" x2="115.569" y2="19.3159">
  </linearGradient>
  <linearGradient id="id4" gradientUnits="userSpaceOnUse" x1="2.07709" y1="38.1924" x2="28.753" y2="38.1924">
   <stop offset="0" style="stop-color:#8AC6E7"/>
   <stop offset="0.501961" style="stop-color:#65B2E1"/>
   <stop offset="1" style="stop-color:#369FD9"/>
  </linearGradient>
  <linearGradient id="id5" gradientUnits="userSpaceOnUse" xlink:href="#id4" x1="9.62909" y1="53.2869" x2="36.3003" y2="53.2869">
  </linearGradient>
  <linearGradient id="id6" gradientUnits="userSpaceOnUse" xlink:href="#id4" x1="9.62909" y1="23.0896" x2="36.3003" y2="23.0896">
  </linearGradient>
 </defs>
 <g id="Layer_x0020_1">
  <metadata id="CorelCorpID_0Corel-Layer"/>
  <rect class="fil0" width="133" height="133"/>
 </g>
 <g id="Layer_x0020_1_0">
  <metadata id="CorelCorpID_1Corel-Layer"/>
  <path class="fil1" d="M13 57l19 0c2,0 4,-2 4,-4 0,-2 -2,-4 -4,-4l0 0 -19 0c-2,0 -4,2 -4,4l0 0c0,2 2,4 4,4z"/>
  <path class="fil2" d="M25 34l-19 0c-2,0 -4,2 -4,4l0 0c0,2 2,4 4,4l0 0 19 0c2,0 4,-2 4,-4 0,-2 -2,-4 -4,-4z"/>
  <path class="fil3" d="M88 33l-30 30c-3,3 -3,8 0,11l0 0 17 17 -21 21c-3,3 -3,8 0,11l0 0c3,3 8,3 11,0l0 0 26 -26c3,-3 3,-8 0,-11l0 0 -17 -17 12 -12 0 4c0,4 3,8 8,8l0 0 30 0c4,0 8,-3 8,-8l0 0c0,-4 -3,-8 -8,-8l0 0 -23 0 0 -15c0,-5 -4,-8 -8,-8l0 0c-2,0 -4,1 -5,2l0 0z"/>
  <path class="fil4" d="M63 16l-21 21c-3,3 -3,8 0,11l0 0c3,3 8,3 11,0l0 0 16 -16 6 4 7 -7c1,-1 3,-2 4,-3l0 0 -14 -10c-1,-1 -3,-1 -4,-1l0 0c-2,0 -4,1 -5,2l0 0z"/>
  <path class="fil5" d="M8 112c-3,3 -3,8 0,11l0 0c3,3 8,3 11,0l0 0 38 -38 -5 -5c-2,-2 -3,-4 -4,-7l-40 40z"/>
  <path class="fil6" d="M93 19c0,6 5,11 11,11 6,0 11,-5 11,-11 0,-6 -5,-11 -11,-11l0 0c-6,0 -11,5 -11,11l0 0z"/>
  <path class="fil7" d="M13 27l19 0c2,0 4,-2 4,-4 0,-2 -2,-4 -4,-4l0 0 -19 0c-2,0 -4,2 -4,4l0 0c0,2 2,4 4,4z"/>
 </g>
</svg>
