<?xml version="1.0" encoding="UTF-8"?>
<!DOCTYPE svg PUBLIC "-//W3C//DTD SVG 1.1//EN" "http://www.w3.org/Graphics/SVG/1.1/DTD/svg11.dtd">
<!-- Creator: CorelDRAW X6 -->
<svg xmlns="http://www.w3.org/2000/svg" xml:space="preserve" width="133px" height="133px" version="1.1" style="shape-rendering:geometricPrecision; text-rendering:geometricPrecision; image-rendering:optimizeQuality; fill-rule:evenodd; clip-rule:evenodd"
viewBox="0 0 133 133"
 xmlns:xlink="http://www.w3.org/1999/xlink">
 <defs>
  <style type="text/css">
   <![CDATA[
    .fil0 {fill:none}
    .fil1 {fill:url(#id0)}
    .fil2 {fill:url(#id1)}
   ]]>
  </style>
  <linearGradient id="id0" gradientUnits="userSpaceOnUse" x1="4.15537" y1="66.5" x2="128.845" y2="66.5">
   <stop offset="0" style="stop-color:#656261"/>
   <stop offset="1" style="stop-color:#3C3936"/>
  </linearGradient>
  <linearGradient id="id1" gradientUnits="userSpaceOnUse" x1="51.5291" y1="66.4976" x2="81.4756" y2="66.4976">
   <stop offset="0" style="stop-color:#8AC6E7"/>
   <stop offset="0.501961" style="stop-color:#65B2E1"/>
   <stop offset="1" style="stop-color:#369FD9"/>
  </linearGradient>
 </defs>
 <g id="Layer_x0020_1">
  <metadata id="CorelCorpID_0Corel-Layer"/>
  <rect class="fil0" width="133" height="133"/>
 </g>
 <g id="Layer_x0020_1_0">
  <metadata id="CorelCorpID_1Corel-Layer"/>
  <path class="fil1" d="M59 4c-2,0 -3,1 -4,3l0 0 -4 15c-3,1 -5,2 -7,3l0 0 -12 -7c-1,-1 -3,-1 -4,1l0 0 -10 10c-1,1 -1,3 -1,4l0 0 7 12c-1,2 -2,5 -3,7l0 0 -14 4c-2,0 -3,2 -3,4l0 0 0 15c0,2 1,3 3,4l0 0 14 4c1,3 2,5 3,7l0 0 -7 12c-1,1 -1,3 1,4l0 0 10 10c1,1 3,1 4,1l0 0 12 -7c2,1 5,2 7,3l0 0 4 14c0,2 2,3 4,3l0 0 15 0c2,0 3,-1 4,-3l0 0 4 -14c3,-1 5,-2 7,-3l0 0 12 7c1,1 3,1 4,-1l0 0 10 -10c1,-1 1,-3 1,-4l0 0 -7 -12c1,-2 2,-5 3,-7l0 0 15 -4c2,0 3,-2 3,-4l0 0 0 -15c0,-2 -1,-3 -3,-4l0 0 -15 -4c-1,-3 -2,-5 -3,-7l0 0 7 -12c1,-1 1,-3 -1,-4l0 0 -10 -10c-1,-1 -3,-1 -4,-1l0 0 -12 7c-2,-1 -5,-2 -7,-3l0 0 -4 -15c0,-2 -2,-3 -4,-3l0 0 -15 0zm-11 63c0,-10 8,-18 18,-18l0 0c10,0 18,8 18,18l0 0c0,10 -8,18 -18,18l0 0c-10,0 -18,-8 -18,-18l0 0z"/>
  <path class="fil2" d="M52 67c0,8 7,15 15,15l0 0c8,0 15,-7 15,-15l0 0c0,-8 -7,-15 -15,-15l0 0c-8,0 -15,7 -15,15l0 0z"/>
 </g>
</svg>
